<?xml version="1.0" standalone="no"?>
<!DOCTYPE svg PUBLIC "-//W3C//DTD SVG 20010904//EN"
 "http://www.w3.org/TR/2001/REC-SVG-20010904/DTD/svg10.dtd">
<svg version="1.0" xmlns="http://www.w3.org/2000/svg"
 width="700.000000pt" height="700.000000pt" viewBox="0 0 700.000000 700.000000"
 preserveAspectRatio="xMidYMid meet">
<metadata>
Created by potrace 1.11, written by Peter Selinger 2001-2013
</metadata>
<g transform="translate(0.000000,700.000000) scale(0.100000,-0.100000)"
fill="#000000" stroke="none">
<path d="M1465 4380 c-479 -478 -870 -874 -870 -880 0 -8 1596 -1614 1719
-1729 l22 -20 203 203 204 204 -284 286 c-156 158 -407 411 -557 564 -150 152
-321 325 -380 385 l-107 107 668 668 c367 367 667 670 667 673 0 6 -132 137
-245 244 -27 26 -77 73 -110 106 l-61 59 -869 -870z"/>
<path d="M4461 5046 l-203 -204 671 -671 671 -671 -671 -671 -671 -671 203
-204 204 -204 872 872 c480 480 873 876 873 879 0 4 -1727 1734 -1743 1746 -2
1 -94 -89 -206 -201z"/>
</g>
</svg>
